# xmcd
#
# Track frame offsets:
#	150
#	13261
#	37088
#	50392
#	65548
#	81090
#	94086
#	109477
#	124415
#	135375
#	146652
#	158816
#	172007
#	185450
#	200064
#	231396
#
# Disc length: 3100 seconds
#
# Revision: 1
# Processed by: cddbd v1.5.2PL0 Copyright (c) Steve Scherf et al.
# Submitted via: audiograbber 1.83.01
#
DISCID=ef0c1a10
DTITLE=Paycheck, Johnny - CB90144
DYEAR=1900
DGENRE=Karaoke
TTITLE0=Take This Job And Shove It
TTITLE1=Outlaw's Prayer, The
TTITLE2=Let's All Go Down To The River
TTITLE3=Someone To Give My Love To
TTITLE4=Friend, Lover, Wife
TTITLE5=Song And Dance Man
TTITLE6=I'm The Only Hell (Mama Ever Raised)
TTITLE7=Slide Off Of Your Satin Sheets
TTITLE8=Slide Off Of Your Satin Sheets
TTITLE9=A-11
TTITLE10=For A Minute There
TTITLE11=Something About You I Love
TTITLE12=Love Is A Good Thing
TTITLE13=My Part Of Forever
TTITLE14=Old Violin
TTITLE15=Data
EXTD=
EXTT0=
EXTT1=
EXTT2=
EXTT3=
EXTT4=
EXTT5=
EXTT6=
EXTT7=
EXTT8=
EXTT9=
EXTT10=
EXTT11=
EXTT12=
EXTT13=
EXTT14=
EXTT15=
PLAYORDER=
